├â┼╕├â┼╕├â┼╕├â┼╕├â┼╕├â┼╕├â┼╕├â┼╕├â┼╕├â┼╕├â┼╕├â┼╕├â┼╕├â┼╕├â┼╕├â┼╕├â┼╕├â┼╕├â┼╕├â┼╕├â┼╕├â┼╕├â┼╕├â┼╕├â┼╕├â┼╕├â┼╕├â┼╕├â┼╕├â┼╕├â┼╕├â┼╕├â┼╕├â┼╕├â┼╕├â┼╕├â┼╕├â┼╕├â┼╕├â┼╕├â┼╕├â┼╕├â┼╕├â┼╕├â┼╕├â┼╕├â┼╕├â┼╕├â┼╕├â┼╕├â┼╕├â┼╕├â┼╕├â┼╕├â┼╕├â┼╕├â┼╕├â┼╕├â┼╕├â┼╕├â┼╕├â┼╕├â┼╕├â┼╕├â┼╕├â┼╕├â┼╕├â┼╕├â┼╕├â┼╕

                 ├âΓÇ║├é┬░├é┬░├é┬░├é┬░├é┬░├é┬░├é┬░├é┬░├é┬░├é┬░├é┬░├é┬░├é┬░├é┬░├é┬░├é┬░├é┬░├é┬░├é┬░├é┬░├é┬░├é┬░├é┬░├é┬░├é┬░├é┬░├é┬░├é┬░├é┬░├é┬░├é┬░├é┬░├é┬░├é┬░├é┬░├âΓÇ║
                ├âΓÇ║├âΓÇ║ Observe And Report[2009]DvDrip-LW ├âΓÇ║├âΓÇ║
                 ├âΓÇ║├é┬░├é┬░├é┬░├é┬░├é┬░├é┬░├é┬░├é┬░├é┬░├é┬░├é┬░├é┬░├é┬░├é┬░├é┬░├é┬░├é┬░├é┬░├é┬░├é┬░├é┬░├é┬░├é┬░├é┬░├é┬░├é┬░├é┬░├é┬░├é┬░├é┬░├é┬░├é┬░├é┬░├é┬░├é┬░├âΓÇ║

File Name    : Observe And Report[2009]DvDrip-LW
Type         : Movie
Format       : AVI
File Size    : 700 MB
Duration     : 01:22:07
Language     : English
Source       : DvD
Subtitles    : None
Genre        : Action | Comedy | Crime | Drama
IMDB Link    : http://www.imdb.com/title/tt1197628/
IMDB Rating  : 6.8/10
IMDB Votes   : 6,789 Votes
     ├â┼ô├â┼ô├â┼ô├â┼ô├â┼ô├â┼ô├â┼ô├â┼ô├â┼ô├â┼ô├â┼ô├â┼ô├â┼ô├â┼ô├â┼ô├â┼ô├â┼ô├â┼ô├â┼ô├â┼ô├â┼ô├â┼ô├â┼ô├â┼ô├â┼ô├â┼ô├â┼ô├â┼ô├â┼ô├â┼ô├â┼ô├â┼ô├â┼ô├â┼ô├â┼ô├â┼ô├â┼ô├â┼ô├â┼ô├â┼ô├â┼ô├â┼ô├â┼ô├â┼ô├â┼ô├â┼ô├â┼ô├â┼ô├â┼ô├â┼ô├â┼ô├â┼ô├â┼ô├â┼ô├â┼ô├â┼ô├â┼ô├â┼ô├â┼ô├â┼ô├â┼ô├â┼ô├â┼ô├â┼ô├â┼ô├â┼ô├â┼ô├â┼ô├â┼ô├â┼ô
 
                        ├âΓÇ║├é┬░├é┬░├é┬░├é┬░├é┬░├é┬░├é┬░├é┬░├é┬░├é┬░├é┬░├é┬░├é┬░├é┬░├é┬░├é┬░├é┬░├é┬░├é┬░├é┬░├é┬░├é┬░├é┬░├é┬░├âΓÇ║
                       ├âΓÇ║├âΓÇ║       Video Info       ├âΓÇ║├âΓÇ║
                        ├âΓÇ║├é┬░├é┬░├é┬░├é┬░├é┬░├é┬░├é┬░├é┬░├é┬░├é┬░├é┬░├é┬░├é┬░├é┬░├é┬░├é┬░├é┬░├é┬░├é┬░├é┬░├é┬░├é┬░├é┬░├é┬░├âΓÇ║

Format                           : MPEG-4 Visual
Format profile                   : Streaming Video@L1
Format settings, BVOP            : Yes
Format settings, QPel            : No
Format settings, GMC             : No warppoints
Format settings, Matrix          : Default (H.263)
Muxing mode                      : Packed bitstream
Codec ID                         : XVID
Codec ID/Hint                    : XviD
Duration                         : 1h 22mn
Bit rate                         : 1 093 Kbps
Width                            : 704 pixels
Height                           : 304 pixels
Display aspect ratio             : 2.35
Frame rate                       : 25.000 fps
Resolution                       : 24 bits
Colorimetry                      : 4:2:0
Scan type                        : Progressive
Bits/(Pixel*Frame)               : 0.204
Stream size                      : 642 MiB (92%)
Writing library                  : XviD 1.2.1
     ├â┼ô├â┼ô├â┼ô├â┼ô├â┼ô├â┼ô├â┼ô├â┼ô├â┼ô├â┼ô├â┼ô├â┼ô├â┼ô├â┼ô├â┼ô├â┼ô├â┼ô├â┼ô├â┼ô├â┼ô├â┼ô├â┼ô├â┼ô├â┼ô├â┼ô├â┼ô├â┼ô├â┼ô├â┼ô├â┼ô├â┼ô├â┼ô├â┼ô├â┼ô├â┼ô├â┼ô├â┼ô├â┼ô├â┼ô├â┼ô├â┼ô├â┼ô├â┼ô├â┼ô├â┼ô├â┼ô├â┼ô├â┼ô├â┼ô├â┼ô├â┼ô├â┼ô├â┼ô├â┼ô├â┼ô├â┼ô├â┼ô├â┼ô├â┼ô├â┼ô├â┼ô├â┼ô├â┼ô├â┼ô├â┼ô├â┼ô├â┼ô├â┼ô├â┼ô├â┼ô

                         ├âΓÇ║├é┬░├é┬░├é┬░├é┬░├é┬░├é┬░├é┬░├é┬░├é┬░├é┬░├é┬░├é┬░├é┬░├é┬░├é┬░├é┬░├é┬░├é┬░├é┬░├é┬░├é┬░├é┬░├é┬░├é┬░├âΓÇ║
                        ├âΓÇ║├âΓÇ║      Sound Info        ├âΓÇ║├âΓÇ║
                         ├âΓÇ║├é┬░├é┬░├é┬░├é┬░├é┬░├é┬░├é┬░├é┬░├é┬░├é┬░├é┬░├é┬░├é┬░├é┬░├é┬░├é┬░├é┬░├é┬░├é┬░├é┬░├é┬░├é┬░├é┬░├é┬░├âΓÇ║

Format                           : MPEG Audio
Format version                   : Version 1
Format profile                   : Layer 3
Codec ID                         : 55
Codec ID/Hint                    : MP3
Duration                         : 1h 22mn
Bit rate mode                    : Variable
Bit rate                         : 112 Kbps
Channel(s)                       : 2 channels
Sampling rate                    : 44.1 KHz
Resolution                       : 16 bits
Stream size                      : 50.9 MiB (7%)
Alignment                        : Aligned on interleaves
Interleave, duration             : 26 ms (0.65 video frame)
Interleave, preload duration     : 500 ms
    ├â┼ô├â┼ô├â┼ô├â┼ô├â┼ô├â┼ô├â┼ô├â┼ô├â┼ô├â┼ô├â┼ô├â┼ô├â┼ô├â┼ô├â┼ô├â┼ô├â┼ô├â┼ô├â┼ô├â┼ô├â┼ô├â┼ô├â┼ô├â┼ô├â┼ô├â┼ô├â┼ô├â┼ô├â┼ô├â┼ô├â┼ô├â┼ô├â┼ô├â┼ô├â┼ô├â┼ô├â┼ô├â┼ô├â┼ô├â┼ô├â┼ô├â┼ô├â┼ô├â┼ô├â┼ô├â┼ô├â┼ô├â┼ô├â┼ô├â┼ô├â┼ô├â┼ô├â┼ô├â┼ô├â┼ô├â┼ô├â┼ô├â┼ô├â┼ô├â┼ô├â┼ô├â┼ô├â┼ô├â┼ô├â┼ô├â┼ô├â┼ô├â┼ô├â┼ô├â┼ô

                          ├âΓÇ║├é┬░├é┬░├é┬░├é┬░├é┬░├é┬░├é┬░├é┬░├é┬░├é┬░├é┬░├é┬░├é┬░├é┬░├é┬░├é┬░├é┬░├é┬░├é┬░├é┬░├é┬░├é┬░├é┬░├é┬░├âΓÇ║
                         ├âΓÇ║├âΓÇ║          Plot          ├âΓÇ║├âΓÇ║
                          ├âΓÇ║├é┬░├é┬░├é┬░├é┬░├é┬░├é┬░├é┬░├é┬░├é┬░├é┬░├é┬░├é┬░├é┬░├é┬░├é┬░├é┬░├é┬░├é┬░├é┬░├é┬░├é┬░├é┬░├é┬░├é┬░├âΓÇ║

Rent-a-cop Ronnie Barnhardt (Seth Rogen) is tasked 
with keeping the peace at the Forest Ridge Mall, 
but when a flasher strikes, Ronnie has no gun -- 
and no power to stop the exhibitionist. A rivalry 
ensues when the police send in Det. Harrison (Ray 
Liotta) to crack the case. Can Ronnie bring the 
flasher to justice before the well-armed Harrison 
does? Anna Faris also stars in this comic gem from 
writer-director Jody Hill.

Starring: Seth Rogen, Anna Faris

Director: Jody Hill
    ├â┼ô├â┼ô├â┼ô├â┼ô├â┼ô├â┼ô├â┼ô├â┼ô├â┼ô├â┼ô├â┼ô├â┼ô├â┼ô├â┼ô├â┼ô├â┼ô├â┼ô├â┼ô├â┼ô├â┼ô├â┼ô├â┼ô├â┼ô├â┼ô├â┼ô├â┼ô├â┼ô├â┼ô├â┼ô├â┼ô├â┼ô├â┼ô├â┼ô├â┼ô├â┼ô├â┼ô├â┼ô├â┼ô├â┼ô├â┼ô├â┼ô├â┼ô├â┼ô├â┼ô├â┼ô├â┼ô├â┼ô├â┼ô├â┼ô├â┼ô├â┼ô├â┼ô├â┼ô├â┼ô├â┼ô├â┼ô├â┼ô├â┼ô├â┼ô├â┼ô├â┼ô├â┼ô├â┼ô├â┼ô├â┼ô├â┼ô├â┼ô├â┼ô├â┼ô├â┼ô

ScreenShots 
http://imgshack.info/images/ty3m5bbzdc6fu017mvem.png 
http://imgshack.info/images/lm5w38pretcdh95qjg1t.png 
http://imgshack.info/images/gow0m4wm69riubw2qoj0.png